<mxfile host="app.diagrams.net" modified="2022-02-14T06:44:21.556Z" agent="5.0 (Windows NT 10.0; Win64; x64) AppleWebKit/537.36 (KHTML, like Gecko) Chrome/96.0.4664.110 Safari/537.36 OPR/82.0.4227.50" etag="vWx96NX7rNT2zcuSFQTk" version="16.5.6" type="github" pages="3">
  <diagram id="C5RBs43oDa-KdzZeNtuy" name="Page-1">
    <mxGraphModel dx="1374" dy="795" grid="1" gridSize="10" guides="1" tooltips="1" connect="1" arrows="1" fold="1" page="1" pageScale="1" pageWidth="827" pageHeight="1169" math="0" shadow="0">
      <root>
        <mxCell id="WIyWlLk6GJQsqaUBKTNV-0" />
        <mxCell id="WIyWlLk6GJQsqaUBKTNV-1" parent="WIyWlLk6GJQsqaUBKTNV-0" />
        <mxCell id="WIyWlLk6GJQsqaUBKTNV-2" value="" style="rounded=0;html=1;jettySize=auto;orthogonalLoop=1;fontSize=11;endArrow=block;endFill=0;endSize=8;strokeWidth=1;shadow=0;labelBackgroundColor=none;edgeStyle=orthogonalEdgeStyle;" parent="WIyWlLk6GJQsqaUBKTNV-1" edge="1">
          <mxGeometry relative="1" as="geometry">
            <mxPoint x="220" y="120" as="sourcePoint" />
            <mxPoint x="220" y="170" as="targetPoint" />
          </mxGeometry>
        </mxCell>
        <mxCell id="j_S3-wjvyxYgdBAiICmx-0" value="inicio&amp;nbsp;" style="ellipse;whiteSpace=wrap;html=1;" vertex="1" parent="WIyWlLk6GJQsqaUBKTNV-1">
          <mxGeometry x="180" y="90" width="80" height="40" as="geometry" />
        </mxCell>
        <mxCell id="j_S3-wjvyxYgdBAiICmx-6" style="edgeStyle=orthogonalEdgeStyle;rounded=0;orthogonalLoop=1;jettySize=auto;html=1;exitX=0.5;exitY=1;exitDx=0;exitDy=0;entryX=0.5;entryY=0;entryDx=0;entryDy=0;" edge="1" parent="WIyWlLk6GJQsqaUBKTNV-1" source="j_S3-wjvyxYgdBAiICmx-1" target="j_S3-wjvyxYgdBAiICmx-2">
          <mxGeometry relative="1" as="geometry" />
        </mxCell>
        <mxCell id="j_S3-wjvyxYgdBAiICmx-1" value="&lt;div style=&quot;text-align: left&quot;&gt;&lt;span&gt;&lt;br&gt;&lt;/span&gt;&lt;/div&gt;&lt;div style=&quot;text-align: left&quot;&gt;&lt;span&gt;&lt;br&gt;&lt;/span&gt;&lt;/div&gt;&lt;div style=&quot;text-align: left&quot;&gt;&lt;span&gt;&lt;br&gt;&lt;/span&gt;&lt;/div&gt;&lt;div style=&quot;text-align: left&quot;&gt;&lt;span&gt;leer (15 ºC, convertir en&amp;nbsp;&lt;/span&gt;&lt;br&gt;&lt;/div&gt;&lt;div style=&quot;text-align: left&quot;&gt;&lt;span&gt;farenheit&lt;/span&gt;&lt;span&gt;&amp;nbsp;&lt;/span&gt;&lt;span&gt;)&lt;/span&gt;&lt;/div&gt;" style="shape=manualInput;whiteSpace=wrap;html=1;size=40;" vertex="1" parent="WIyWlLk6GJQsqaUBKTNV-1">
          <mxGeometry x="145" y="150" width="150" height="80" as="geometry" />
        </mxCell>
        <mxCell id="j_S3-wjvyxYgdBAiICmx-7" style="edgeStyle=orthogonalEdgeStyle;rounded=0;orthogonalLoop=1;jettySize=auto;html=1;exitX=0.5;exitY=1;exitDx=0;exitDy=0;entryX=0;entryY=0;entryDx=78.75;entryDy=0;entryPerimeter=0;" edge="1" parent="WIyWlLk6GJQsqaUBKTNV-1" source="j_S3-wjvyxYgdBAiICmx-2" target="j_S3-wjvyxYgdBAiICmx-3">
          <mxGeometry relative="1" as="geometry" />
        </mxCell>
        <mxCell id="j_S3-wjvyxYgdBAiICmx-2" value="ºF = ((º15C * 9/5)+32)" style="rounded=1;whiteSpace=wrap;html=1;" vertex="1" parent="WIyWlLk6GJQsqaUBKTNV-1">
          <mxGeometry x="160" y="280" width="120" height="60" as="geometry" />
        </mxCell>
        <mxCell id="j_S3-wjvyxYgdBAiICmx-8" style="edgeStyle=orthogonalEdgeStyle;rounded=0;orthogonalLoop=1;jettySize=auto;html=1;exitX=0;exitY=0;exitDx=78.75;exitDy=60;exitPerimeter=0;" edge="1" parent="WIyWlLk6GJQsqaUBKTNV-1" source="j_S3-wjvyxYgdBAiICmx-3">
          <mxGeometry relative="1" as="geometry">
            <mxPoint x="219" y="510" as="targetPoint" />
          </mxGeometry>
        </mxCell>
        <mxCell id="j_S3-wjvyxYgdBAiICmx-3" value="Imprimir&lt;br&gt;&quot;ºF&quot;&amp;nbsp;" style="shape=display;whiteSpace=wrap;html=1;" vertex="1" parent="WIyWlLk6GJQsqaUBKTNV-1">
          <mxGeometry x="140" y="400" width="150" height="60" as="geometry" />
        </mxCell>
        <mxCell id="j_S3-wjvyxYgdBAiICmx-4" value="Fin" style="ellipse;whiteSpace=wrap;html=1;" vertex="1" parent="WIyWlLk6GJQsqaUBKTNV-1">
          <mxGeometry x="170" y="510" width="90" height="40" as="geometry" />
        </mxCell>
      </root>
    </mxGraphModel>
  </diagram>
  <diagram id="j9LvJpjqWlfmXqtaT33x" name="Page-2">
    <mxGraphModel dx="1374" dy="795" grid="1" gridSize="10" guides="1" tooltips="1" connect="1" arrows="1" fold="1" page="1" pageScale="1" pageWidth="827" pageHeight="1169" math="0" shadow="0">
      <root>
        <mxCell id="A9XIlMgCKEa6uk6Dez_2-0" />
        <mxCell id="A9XIlMgCKEa6uk6Dez_2-1" parent="A9XIlMgCKEa6uk6Dez_2-0" />
        <mxCell id="A9XIlMgCKEa6uk6Dez_2-4" style="edgeStyle=orthogonalEdgeStyle;rounded=0;orthogonalLoop=1;jettySize=auto;html=1;fontColor=#000000;" edge="1" parent="A9XIlMgCKEa6uk6Dez_2-1" source="A9XIlMgCKEa6uk6Dez_2-2">
          <mxGeometry relative="1" as="geometry">
            <mxPoint x="120" y="120" as="targetPoint" />
          </mxGeometry>
        </mxCell>
        <mxCell id="A9XIlMgCKEa6uk6Dez_2-2" value="&lt;span&gt;&lt;font&gt;Inicio&lt;/font&gt;&lt;/span&gt;" style="ellipse;whiteSpace=wrap;html=1;labelBackgroundColor=#FFFFFF;fontColor=#000000;strokeColor=#242424;fillColor=#FFFFFF;verticalAlign=middle;horizontal=1;labelBorderColor=none;" vertex="1" parent="A9XIlMgCKEa6uk6Dez_2-1">
          <mxGeometry x="80" y="40" width="80" height="50" as="geometry" />
        </mxCell>
        <mxCell id="A9XIlMgCKEa6uk6Dez_2-6" style="edgeStyle=orthogonalEdgeStyle;rounded=0;orthogonalLoop=1;jettySize=auto;html=1;exitX=0.5;exitY=1;exitDx=0;exitDy=0;fontColor=#000000;" edge="1" parent="A9XIlMgCKEa6uk6Dez_2-1" source="A9XIlMgCKEa6uk6Dez_2-5">
          <mxGeometry relative="1" as="geometry">
            <mxPoint x="120" y="230" as="targetPoint" />
          </mxGeometry>
        </mxCell>
        <mxCell id="A9XIlMgCKEa6uk6Dez_2-5" value="&amp;nbsp;Las tres notas parciales" style="shape=manualInput;whiteSpace=wrap;html=1;labelBackgroundColor=#FFFFFF;labelBorderColor=none;fontColor=#000000;strokeColor=#242424;fillColor=#FFFFFF;size=13;" vertex="1" parent="A9XIlMgCKEa6uk6Dez_2-1">
          <mxGeometry x="55" y="120" width="130" height="60" as="geometry" />
        </mxCell>
        <mxCell id="b36jiTAZeoGLKjsGa0VD-0" style="edgeStyle=orthogonalEdgeStyle;rounded=0;orthogonalLoop=1;jettySize=auto;html=1;exitX=0.5;exitY=1;exitDx=0;exitDy=0;fontColor=#000000;" edge="1" parent="A9XIlMgCKEa6uk6Dez_2-1" source="_40jU5gqS9IjT1OmutIx-0" target="b36jiTAZeoGLKjsGa0VD-1">
          <mxGeometry relative="1" as="geometry">
            <mxPoint x="125" y="340" as="targetPoint" />
          </mxGeometry>
        </mxCell>
        <mxCell id="_40jU5gqS9IjT1OmutIx-0" value="Escribir las tres notas parciales:&amp;nbsp;" style="rounded=1;whiteSpace=wrap;html=1;labelBackgroundColor=#FFFFFF;labelBorderColor=none;fontColor=#000000;strokeColor=#242424;fillColor=#FFFFFF;" vertex="1" parent="A9XIlMgCKEa6uk6Dez_2-1">
          <mxGeometry x="65" y="230" width="120" height="60" as="geometry" />
        </mxCell>
        <mxCell id="b36jiTAZeoGLKjsGa0VD-2" style="edgeStyle=orthogonalEdgeStyle;rounded=0;orthogonalLoop=1;jettySize=auto;html=1;fontColor=#000000;" edge="1" parent="A9XIlMgCKEa6uk6Dez_2-1" source="b36jiTAZeoGLKjsGa0VD-1">
          <mxGeometry relative="1" as="geometry">
            <mxPoint x="125" y="420" as="targetPoint" />
          </mxGeometry>
        </mxCell>
        <mxCell id="b36jiTAZeoGLKjsGa0VD-1" value="promedio&amp;nbsp; = (50 + 50 + 50 / 3)" style="rounded=1;whiteSpace=wrap;html=1;labelBackgroundColor=#FFFFFF;labelBorderColor=none;fontColor=#000000;strokeColor=#242424;fillColor=#FFFFFF;" vertex="1" parent="A9XIlMgCKEa6uk6Dez_2-1">
          <mxGeometry x="65" y="310" width="120" height="60" as="geometry" />
        </mxCell>
        <mxCell id="UgHYyojsCvAbePOVzRT1-1" style="edgeStyle=orthogonalEdgeStyle;rounded=0;orthogonalLoop=1;jettySize=auto;html=1;entryX=0.5;entryY=0;entryDx=0;entryDy=0;fontColor=#000000;exitX=0;exitY=0;exitDx=72.5;exitDy=60;exitPerimeter=0;" edge="1" parent="A9XIlMgCKEa6uk6Dez_2-1" source="fZdcEFMqkUHQQ8GuWCio-0" target="UgHYyojsCvAbePOVzRT1-0">
          <mxGeometry relative="1" as="geometry">
            <mxPoint x="130" y="490" as="sourcePoint" />
            <Array as="points">
              <mxPoint x="120" y="480" />
            </Array>
          </mxGeometry>
        </mxCell>
        <mxCell id="fZdcEFMqkUHQQ8GuWCio-0" value="Imprimir &quot;promedio&quot;" style="shape=display;whiteSpace=wrap;html=1;labelBackgroundColor=#FFFFFF;labelBorderColor=none;fontColor=#000000;strokeColor=#242424;fillColor=#FFFFFF;" vertex="1" parent="A9XIlMgCKEa6uk6Dez_2-1">
          <mxGeometry x="45" y="420" width="140" height="60" as="geometry" />
        </mxCell>
        <mxCell id="UgHYyojsCvAbePOVzRT1-0" value="&lt;span&gt;&lt;font&gt;Fin&lt;/font&gt;&lt;/span&gt;" style="ellipse;whiteSpace=wrap;html=1;labelBackgroundColor=#FFFFFF;fontColor=#000000;strokeColor=#242424;fillColor=#FFFFFF;verticalAlign=middle;horizontal=1;labelBorderColor=none;" vertex="1" parent="A9XIlMgCKEa6uk6Dez_2-1">
          <mxGeometry x="80" y="520" width="80" height="50" as="geometry" />
        </mxCell>
      </root>
    </mxGraphModel>
  </diagram>
  <diagram id="dLhsllHVzqvLBzs-8ASQ" name="Page-3">
    <mxGraphModel dx="1374" dy="795" grid="1" gridSize="10" guides="1" tooltips="1" connect="1" arrows="1" fold="1" page="1" pageScale="1" pageWidth="827" pageHeight="1169" math="0" shadow="0">
      <root>
        <mxCell id="6GWP7lhl2jTir09dySpJ-0" />
        <mxCell id="6GWP7lhl2jTir09dySpJ-1" parent="6GWP7lhl2jTir09dySpJ-0" />
        <mxCell id="_BFqsE9556rTpa-dP4d5-0" style="edgeStyle=orthogonalEdgeStyle;rounded=0;orthogonalLoop=1;jettySize=auto;html=1;exitX=0.5;exitY=1;exitDx=0;exitDy=0;entryX=0.511;entryY=0.188;entryDx=0;entryDy=0;entryPerimeter=0;fontColor=#000000;" edge="1" parent="6GWP7lhl2jTir09dySpJ-1" source="6GWP7lhl2jTir09dySpJ-2" target="6GWP7lhl2jTir09dySpJ-3">
          <mxGeometry relative="1" as="geometry" />
        </mxCell>
        <mxCell id="6GWP7lhl2jTir09dySpJ-2" value="Inicio&amp;nbsp;" style="ellipse;whiteSpace=wrap;html=1;labelBackgroundColor=#FFFFFF;labelBorderColor=none;fontColor=#000000;strokeColor=#242424;fillColor=#FFFFFF;" vertex="1" parent="6GWP7lhl2jTir09dySpJ-1">
          <mxGeometry x="340" y="40" width="120" height="50" as="geometry" />
        </mxCell>
        <mxCell id="_BFqsE9556rTpa-dP4d5-1" style="edgeStyle=orthogonalEdgeStyle;rounded=0;orthogonalLoop=1;jettySize=auto;html=1;exitX=0.5;exitY=1;exitDx=0;exitDy=0;fontColor=#000000;" edge="1" parent="6GWP7lhl2jTir09dySpJ-1" source="6GWP7lhl2jTir09dySpJ-3" target="_BFqsE9556rTpa-dP4d5-2">
          <mxGeometry relative="1" as="geometry">
            <mxPoint x="400" y="230" as="targetPoint" />
          </mxGeometry>
        </mxCell>
        <mxCell id="6GWP7lhl2jTir09dySpJ-3" value="Correctas&lt;br&gt;incorrectas&lt;br&gt;En Blanco" style="shape=manualInput;whiteSpace=wrap;html=1;labelBackgroundColor=#FFFFFF;labelBorderColor=none;fontColor=#000000;strokeColor=#242424;fillColor=#FFFFFF;" vertex="1" parent="6GWP7lhl2jTir09dySpJ-1">
          <mxGeometry x="310" y="110" width="180" height="80" as="geometry" />
        </mxCell>
        <mxCell id="_BFqsE9556rTpa-dP4d5-5" style="edgeStyle=orthogonalEdgeStyle;rounded=0;orthogonalLoop=1;jettySize=auto;html=1;fontColor=#000000;" edge="1" parent="6GWP7lhl2jTir09dySpJ-1">
          <mxGeometry relative="1" as="geometry">
            <mxPoint x="320" y="320" as="targetPoint" />
            <mxPoint x="360" y="280" as="sourcePoint" />
            <Array as="points">
              <mxPoint x="320" y="280" />
              <mxPoint x="320" y="320" />
            </Array>
          </mxGeometry>
        </mxCell>
        <mxCell id="_BFqsE9556rTpa-dP4d5-7" value="Si" style="edgeLabel;html=1;align=center;verticalAlign=middle;resizable=0;points=[];fontColor=#000000;" vertex="1" connectable="0" parent="_BFqsE9556rTpa-dP4d5-5">
          <mxGeometry x="0.05" y="1" relative="1" as="geometry">
            <mxPoint as="offset" />
          </mxGeometry>
        </mxCell>
        <mxCell id="_BFqsE9556rTpa-dP4d5-6" value="No" style="edgeStyle=orthogonalEdgeStyle;rounded=0;orthogonalLoop=1;jettySize=auto;html=1;fontColor=#000000;" edge="1" parent="6GWP7lhl2jTir09dySpJ-1" source="_BFqsE9556rTpa-dP4d5-2">
          <mxGeometry relative="1" as="geometry">
            <mxPoint x="480" y="320" as="targetPoint" />
            <Array as="points">
              <mxPoint x="480" y="280" />
              <mxPoint x="480" y="290" />
            </Array>
          </mxGeometry>
        </mxCell>
        <mxCell id="_BFqsE9556rTpa-dP4d5-2" value="si correcta" style="rhombus;whiteSpace=wrap;html=1;labelBackgroundColor=#FFFFFF;labelBorderColor=none;fontColor=#000000;strokeColor=#242424;fillColor=#FFFFFF;" vertex="1" parent="6GWP7lhl2jTir09dySpJ-1">
          <mxGeometry x="360" y="240" width="80" height="80" as="geometry" />
        </mxCell>
        <mxCell id="_BFqsE9556rTpa-dP4d5-10" style="edgeStyle=orthogonalEdgeStyle;rounded=0;orthogonalLoop=1;jettySize=auto;html=1;fontColor=#000000;entryX=0;entryY=0.5;entryDx=0;entryDy=0;" edge="1" parent="6GWP7lhl2jTir09dySpJ-1" source="_BFqsE9556rTpa-dP4d5-8" target="_BFqsE9556rTpa-dP4d5-12">
          <mxGeometry relative="1" as="geometry">
            <mxPoint x="370" y="440" as="targetPoint" />
            <Array as="points">
              <mxPoint x="320" y="440" />
            </Array>
          </mxGeometry>
        </mxCell>
        <mxCell id="_BFqsE9556rTpa-dP4d5-8" value="Obtiene 4pts." style="strokeWidth=2;html=1;shape=mxgraph.flowchart.document2;whiteSpace=wrap;size=0.016666666666666666;labelBackgroundColor=#FFFFFF;labelBorderColor=none;fontColor=#000000;fillColor=#FFFFFF;" vertex="1" parent="6GWP7lhl2jTir09dySpJ-1">
          <mxGeometry x="270" y="320" width="100" height="60" as="geometry" />
        </mxCell>
        <mxCell id="_BFqsE9556rTpa-dP4d5-11" style="edgeStyle=orthogonalEdgeStyle;rounded=0;orthogonalLoop=1;jettySize=auto;html=1;fontColor=#000000;" edge="1" parent="6GWP7lhl2jTir09dySpJ-1" source="_BFqsE9556rTpa-dP4d5-9">
          <mxGeometry relative="1" as="geometry">
            <mxPoint x="440" y="440" as="targetPoint" />
            <Array as="points">
              <mxPoint x="480" y="440" />
              <mxPoint x="480" y="440" />
            </Array>
          </mxGeometry>
        </mxCell>
        <mxCell id="_BFqsE9556rTpa-dP4d5-9" value="Incorrecta -1pts." style="strokeWidth=2;html=1;shape=mxgraph.flowchart.document2;whiteSpace=wrap;size=0;labelBackgroundColor=#FFFFFF;labelBorderColor=none;fontColor=#000000;fillColor=#FFFFFF;" vertex="1" parent="6GWP7lhl2jTir09dySpJ-1">
          <mxGeometry x="430" y="320" width="100" height="60" as="geometry" />
        </mxCell>
        <mxCell id="_BFqsE9556rTpa-dP4d5-13" style="edgeStyle=orthogonalEdgeStyle;rounded=0;orthogonalLoop=1;jettySize=auto;html=1;exitX=0.5;exitY=1;exitDx=0;exitDy=0;fontColor=#000000;" edge="1" parent="6GWP7lhl2jTir09dySpJ-1" source="_BFqsE9556rTpa-dP4d5-12" target="_BFqsE9556rTpa-dP4d5-14">
          <mxGeometry relative="1" as="geometry">
            <mxPoint x="400" y="520" as="targetPoint" />
          </mxGeometry>
        </mxCell>
        <mxCell id="_BFqsE9556rTpa-dP4d5-12" value="si no si&amp;nbsp;" style="rhombus;whiteSpace=wrap;html=1;labelBackgroundColor=#FFFFFF;labelBorderColor=none;fontColor=#000000;strokeColor=#242424;fillColor=#FFFFFF;" vertex="1" parent="6GWP7lhl2jTir09dySpJ-1">
          <mxGeometry x="360" y="400" width="80" height="80" as="geometry" />
        </mxCell>
        <mxCell id="QVOUe4tK_caWL7S_fmh_-0" style="edgeStyle=orthogonalEdgeStyle;rounded=0;orthogonalLoop=1;jettySize=auto;html=1;fontColor=#000000;" edge="1" parent="6GWP7lhl2jTir09dySpJ-1" source="_BFqsE9556rTpa-dP4d5-14" target="QVOUe4tK_caWL7S_fmh_-1">
          <mxGeometry relative="1" as="geometry">
            <mxPoint x="400" y="640" as="targetPoint" />
          </mxGeometry>
        </mxCell>
        <mxCell id="_BFqsE9556rTpa-dP4d5-14" value="En blanco o pts." style="shape=document;whiteSpace=wrap;html=1;boundedLbl=1;labelBackgroundColor=#FFFFFF;labelBorderColor=none;fontColor=#000000;strokeColor=#242424;fillColor=#FFFFFF;size=0;" vertex="1" parent="6GWP7lhl2jTir09dySpJ-1">
          <mxGeometry x="340" y="530" width="120" height="70" as="geometry" />
        </mxCell>
        <mxCell id="QVOUe4tK_caWL7S_fmh_-2" style="edgeStyle=orthogonalEdgeStyle;rounded=0;orthogonalLoop=1;jettySize=auto;html=1;fontColor=#000000;" edge="1" parent="6GWP7lhl2jTir09dySpJ-1" source="QVOUe4tK_caWL7S_fmh_-1">
          <mxGeometry relative="1" as="geometry">
            <mxPoint x="400" y="730" as="targetPoint" />
          </mxGeometry>
        </mxCell>
        <mxCell id="QVOUe4tK_caWL7S_fmh_-1" value="Mostrar el puntaje final" style="shape=display;whiteSpace=wrap;html=1;labelBackgroundColor=#FFFFFF;labelBorderColor=none;fontColor=#000000;strokeColor=#242424;fillColor=#FFFFFF;" vertex="1" parent="6GWP7lhl2jTir09dySpJ-1">
          <mxGeometry x="322.5" y="640" width="155" height="50" as="geometry" />
        </mxCell>
        <mxCell id="QVOUe4tK_caWL7S_fmh_-3" value="Fin" style="ellipse;whiteSpace=wrap;html=1;labelBackgroundColor=#FFFFFF;labelBorderColor=none;fontColor=#000000;strokeColor=#242424;fillColor=#FFFFFF;" vertex="1" parent="6GWP7lhl2jTir09dySpJ-1">
          <mxGeometry x="340" y="730" width="120" height="50" as="geometry" />
        </mxCell>
      </root>
    </mxGraphModel>
  </diagram>
</mxfile>
